<svg viewBox="0 0 500 500" xmlns="http://www.w3.org/2000/svg">
  <g transform="matrix(1.203376054763794, 0, 0, 1.203376054763794, -47.249202728271484, -58.526153564453125)">
    <ellipse style="stroke: rgb(0, 0, 0); fill: rgb(255, 250, 250);" cx="245.728" cy="256.598" rx="171.553" ry="171.553"/>
    <path d="M 221.7 53.324 C 210 55.024 199.4 57.324 186.1 61.424 C 157.3 70.124 136.8 80.824 114.2 99.024 C 41.1 157.824 18.8 260.524 60.7 345.424 C 67.2 358.624 83.7 382.824 94.7 395.124 C 107.2 409.224 129.3 426.424 147.7 436.424 C 162.7 444.624 187.8 453.624 205.9 457.324 C 226.8 461.624 261.4 461.824 282.7 457.824 C 315.4 451.624 353.3 434.324 375.7 415.424 C 385.3 407.424 399.8 392.224 403.3 386.724 C 404.3 385.124 406.7 381.924 408.7 379.724 C 415.4 371.824 418.7 367.524 419.9 364.624 C 420.6 363.124 422.8 359.324 424.8 356.324 C 428.3 351.024 436.7 333.524 438.2 328.324 C 438.6 326.924 440 323.924 441.3 321.724 C 444.5 316.324 450.2 291.424 451.7 276.824 C 453.4 260.624 452.5 231.724 449.9 218.824 C 444.9 194.024 436.6 172.424 424.6 152.524 C 408 125.224 387.6 103.924 361.5 86.424 C 339.6 71.824 308.9 59.824 280.2 54.724 C 270.6 52.924 231 52.024 221.7 53.324 Z M 271.2 98.324 C 296.7 101.824 323.2 112.324 344.2 127.124 C 352.8 133.224 374.6 154.424 381.4 163.324 C 391 175.924 400.4 197.524 406.4 220.824 C 410.1 235.624 410.2 236.124 410.2 254.324 C 410.1 275.524 408.6 285.624 403.1 302.324 C 392.6 333.724 374.7 359.324 347.2 382.124 C 326.6 399.124 295.4 412.124 266.7 415.524 C 255.1 416.824 229.3 416.024 217.8 413.924 C 179.9 406.924 146.7 388.924 123.2 362.524 C 103.1 339.924 89.2 312.024 83.6 283.024 C 78.9 259.124 81.6 227.024 90.2 202.024 C 92.7 195.024 95.3 188.324 96.1 187.024 C 97 185.824 98.3 182.924 99.1 180.724 C 102.8 170.224 122.6 145.824 135.2 136.424 C 153.1 123.024 158.5 119.524 169.2 114.324 C 190.2 104.124 207.1 99.424 230.7 97.324 C 241.7 96.324 259.7 96.824 271.2 98.324 Z"/>
    <path d="M 278.7 156.424 C 256.4 156.724 222.2 156.824 202.7 156.524 C 160.8 155.924 164.4 155.024 149.6 169.424 C 138.6 180.324 125.7 197.124 125.7 200.824 C 125.7 201.124 148 201.224 175.2 201.124 L 224.7 200.824 L 224.4 292.824 L 224.2 384.724 L 237.2 385.124 C 244.4 385.324 253.9 385.224 258.5 384.824 L 266.7 384.124 L 266.7 292.424 L 266.7 200.724 L 316.2 200.824 C 373.4 200.824 367.8 202.424 359.5 188.324 C 351.3 174.424 343.7 164.524 338.8 161.324 C 333.8 157.924 325.7 155.224 321.8 155.524 C 320.4 155.624 301 156.024 278.7 156.424 Z"/>
    <path d="M 113.7 249.324 C 113.7 256.724 113.4 267.124 113.1 272.324 L 112.4 281.824 L 131.5 281.524 L 150.5 281.224 L 151.2 287.424 C 151.9 293.624 151.1 334.524 150.1 339.524 C 149.4 343.124 154.1 348.224 166.6 357.624 C 175.8 364.524 190.4 373.324 192.7 373.324 C 193.5 373.324 193.7 354.224 193.5 304.824 L 193.2 236.324 L 153.4 236.024 L 113.7 235.824 L 113.7 249.324 Z"/>
    <path d="M 298.2 281.224 C 298.2 347.124 298.6 373.324 299.6 373.324 C 300.8 373.324 317.1 363.324 322.3 359.324 C 324.8 357.424 330 352.824 333.8 349.124 L 340.8 342.324 L 340.7 337.124 C 340.6 334.224 340.6 320.424 340.6 306.524 L 340.7 281.324 L 359.7 281.324 L 378.7 281.324 L 378.6 260.024 C 378.6 248.424 378.3 238.124 377.9 237.324 C 377.3 236.024 371.8 235.824 337.7 235.724 L 298.2 235.624 L 298.2 281.224 Z"/>
  </g>
</svg>
